# xmcd
#
# Track frame offsets: 
#        182
#        16055
#        30417
#        49867
#        68800
#        83430
#        112497
#        126632
#        145042
#        167610
#
# Disc length: 2548 seconds
#
# Revision: 9
# Processed by: cddbd v1.5.2PL0 Copyright (c) Steve Scherf et al.
# Submitted via: ExactAudioCopyFreeDBPlugin 1.0
#
DISCID=8109f20a
DTITLE=Travis Tritt - Ten Feet Tall And Bulletproof
DYEAR=1994
DGENRE=Country
TTITLE0=Ten Feet Tall And Bulletproof
TTITLE1=Walkin' All Over My Heart
TTITLE2=Foolish Pride
TTITLE3=Outlaws Like Us
TTITLE4=Hard Times And Misery
TTITLE5=Tell Me I Was Dreaming
TTITLE6=Wishful Thinking
TTITLE7=Between An Old Memory And Me
TTITLE8=No Vacation From The Blues
TTITLE9=Southern Justice
EXTD=
EXTT0=
EXTT1=
EXTT2=
EXTT3=
EXTT4=
EXTT5=
EXTT6=
EXTT7=
EXTT8=
EXTT9=
PLAYORDER=
